# xmcd CD database file
#
# Track frame offsets:
#	150
#	14475
#	18323
#	30013
#	42691
#	54148
#	68036
#	82875
#	98640
#	107178
#	122943
#	136404
#	150478
#	164742
#	179916
#	196171
#	209763
#	223077
#	240639
#	253170
#	267005
#
# Disc length: 3734 seconds
#
# Revision: 0
# Processed by: cddbd v1.4PL0 Copyright (c) Steve Scherf et al.
# Submitted via: CDex 1.50
#
DISCID=2b0e9415
DTITLE=Various Artist - Old Country
DYEAR=30
DGENRE=Country
TTITLE0=Governor Al Smith
TTITLE1=Jimmy Rogers  - Away Out On The Mountain
TTITLE2=Uncle Dave Macon - All In Down And Out Blues
TTITLE3=JIMMY ROGERS - A Railroad Bum msslwd
TTITLE4=Stringbean - Give Me Back my Five Dollars
TTITLE5=Jimmy Rogers - Blue Yodel #4 (California Blues)
TTITLE6=Uncle Dave Macon - Backwater Blues
TTITLE7=Jimmy Rogers - Blue Yodel (1927)
TTITLE8=Stringbean - Mountain Dew
TTITLE9=JIMMY ROGERS - Gonna Buy Me A Shotgun msslwd
TTITLE10=Uncle Dave Macon - Carve That Possum
TTITLE11=Jimmy Rogers - In The Hills Of Tennessee [1932]
TTITLE12=Uncle Dave Macon - I'm Goin' Away
TTITLE13=Jimmy Rogers - In the Jail House Now
TTITLE14=Jimmy Rogers - Memphis Yodel
TTITLE15=Jimmy Rogers - Mule Skinner Blues
TTITLE16=Jimmy Rogers - Pistol Packing Papa
TTITLE17=Jimmy Rogers - T For Texas (Blue Yodel No. 1)
TTITLE18=Jimmy Rogers - Waiting For A Train
TTITLE19=Jimmy Rogers (Blues Singer 1929) -  A Yodeling Hobo
TTITLE20=Uncle Dave Macon - Run, Nigger, Run
EXTD=YEAR: 30
EXTT0=
EXTT1=
EXTT2=
EXTT3=
EXTT4=
EXTT5=
EXTT6=
EXTT7=
EXTT8=
EXTT9=
EXTT10=
EXTT11=
EXTT12=
EXTT13=
EXTT14=
EXTT15=
EXTT16=
EXTT17=
EXTT18=
EXTT19=
EXTT20=
PLAYORDER=
